<svg xmlns="http://www.w3.org/2000/svg" xmlns:xlink="http://www.w3.org/1999/xlink"
 width="32" height="32" viewBox="0 0 32 32">
 <defs>
 <linearGradient id="a">
 <stop offset="0" stop-color="#24f3d2"/>
 <stop offset=".394" stop-color="#0674f0"/>
 <stop offset=".507" stop-color="#6961b5"/>
 <stop offset=".813" stop-color="#f34660"/>
 <stop offset="1" stop-color="#ee078d"/>
 </linearGradient>
 <linearGradient id="b" x1="868.253" x2="937.656" y1="521.354" y2="588.736" gradientTransform="matrix(1.02524 0 0 1.02524 -884.646 491.682)" gradientUnits="userSpaceOnUse" xlink:href="#a"/>
 </defs><g transform="translate(0 -1020.362)">
 <rect width="32" height="32" y="1020.362" fill="url(#b)" rx="6.763" ry="6.763"/>
 <path fill="#fff" style="text-indent:0;text-align:start;line-height:normal;text-transform:none;block-progression:tb" d="M 16 8.5 C 14.079536 8.5 12.149871 9.2251 10.6875 10.6875 C 7.7627582 13.6122 7.7627511 18.3877 10.6875 21.3125 C 13.612242 24.2372 18.387758 24.2372 21.3125 21.3125 C 24.237242 18.3877 24.237242 13.6122 21.3125 10.6875 C 19.850126 9.2251 17.920464 8.5 16 8.5 z M 16 9.5 C 17.662448 9.5 19.32245 10.13495 20.59375 11.40625 C 23.136344 13.94885 23.136344 18.05115 20.59375 20.59375 C 18.051157 23.13635 13.948844 23.13635 11.40625 20.59375 C 10.13495 19.32245 9.4999991 17.6625 9.5 16 C 9.5000001 15.7922 9.511383 15.582 9.53125 15.375 C 9.670299 13.9257 10.293865 12.51865 11.40625 11.40625 C 12.677546 10.13495 14.337552 9.5 16 9.5 z M 13.375 13.03125 A 0.50004998 0.50004998 0 0 0 13.15625 13.875 L 15.28125 16 L 13.15625 18.125 A 0.50004998 0.50004998 0 1 0 13.875 18.8125 L 16 16.71875 L 18.125 18.8125 A 0.50004998 0.50004998 0 1 0 18.84375 18.125 L 16.71875 16 L 18.84375 13.875 A 0.50004998 0.50004998 0 0 0 18.46875 13.03125 A 0.50004998 0.50004998 0 0 0 18.125 13.15625 L 16 15.28125 L 13.875 13.15625 A 0.50004998 0.50004998 0 0 0 13.53125 13.03125 A 0.50004998 0.50004998 0 0 0 13.375 13.03125 z " color="#fff" font-family="sans-serif" font-weight="400" overflow="visible" transform="translate(0 1020.362)"/></g></svg>